<svg width="28" height="28" viewBox="0 0 28 28" fill="none" xmlns="http://www.w3.org/2000/svg">
<path fill-rule="evenodd" clip-rule="evenodd" d="M2.53859 13.4989C2.53859 7.83902 7.8276 3.5 14.0202 3.5C20.2127 3.5 25.5018 7.83902 25.5018 13.4989C25.5018 19.1589 20.2127 23.4979 14.0202 23.4979C12.647 23.4979 11.3271 23.288 10.1022 22.9013C8.65733 24.2498 6.55802 24.898 3.99 24.9989C2.9439 25.04 2.18884 23.9519 2.62687 22.978C3.24827 21.5866 4.05117 19.9915 4.14638 18.6002C3.12955 17.1195 2.53859 15.3721 2.53859 13.4989ZM14.0202 5.5C8.6351 5.5 4.53859 9.21891 4.53859 13.4989C4.53859 15.0359 5.05322 16.4778 5.96045 17.6996C6.08846 17.872 6.15759 18.081 6.15759 18.2957C6.15759 19.9295 5.50632 21.471 4.84316 22.9339C6.89923 22.7155 8.24807 22.0571 9.06142 21.1C9.33459 20.7786 9.7801 20.6631 10.175 20.8114C11.3472 21.2516 12.6475 21.4979 14.0202 21.4979C19.4052 21.4979 23.5018 17.779 23.5018 13.4989C23.5018 9.21891 19.4052 5.5 14.0202 5.5Z" fill="#99A2AD"/>
</svg>
